<mxfile host="app.diagrams.net" agent="Mozilla/5.0 (Windows NT 10.0; Win64; x64) AppleWebKit/537.36 (KHTML, like Gecko) Chrome/128.0.0.0 Safari/537.36 OPR/114.0.0.0" version="24.8.0">
  <diagram name="Página-1" id="-YCfEvhDfYVRWr2yyKdE">
    <mxGraphModel dx="1941" dy="641" grid="1" gridSize="10" guides="1" tooltips="1" connect="1" arrows="1" fold="1" page="1" pageScale="1" pageWidth="827" pageHeight="1169" math="0" shadow="0">
      <root>
        <mxCell id="0" />
        <mxCell id="1" parent="0" />
        <mxCell id="jLHxoOQeCF7ietmoerU6-5" style="edgeStyle=orthogonalEdgeStyle;rounded=0;orthogonalLoop=1;jettySize=auto;html=1;exitX=1;exitY=0.3333333333333333;exitDx=0;exitDy=0;exitPerimeter=0;" parent="1" source="jLHxoOQeCF7ietmoerU6-1" target="jLHxoOQeCF7ietmoerU6-2" edge="1">
          <mxGeometry relative="1" as="geometry">
            <Array as="points">
              <mxPoint x="-10" y="45" />
            </Array>
          </mxGeometry>
        </mxCell>
        <mxCell id="jLHxoOQeCF7ietmoerU6-12" style="edgeStyle=orthogonalEdgeStyle;rounded=0;orthogonalLoop=1;jettySize=auto;html=1;exitX=1;exitY=1;exitDx=0;exitDy=0;exitPerimeter=0;entryX=0;entryY=0.5;entryDx=0;entryDy=0;" parent="1" source="jLHxoOQeCF7ietmoerU6-1" target="jLHxoOQeCF7ietmoerU6-3" edge="1">
          <mxGeometry relative="1" as="geometry">
            <Array as="points">
              <mxPoint x="20" y="85" />
              <mxPoint x="20" y="105" />
            </Array>
          </mxGeometry>
        </mxCell>
        <mxCell id="jLHxoOQeCF7ietmoerU6-1" value="Aluno" style="shape=umlActor;verticalLabelPosition=bottom;verticalAlign=top;html=1;" parent="1" vertex="1">
          <mxGeometry x="-40" y="25" width="30" height="60" as="geometry" />
        </mxCell>
        <mxCell id="jLHxoOQeCF7ietmoerU6-2" value="Recuperar senha" style="ellipse;whiteSpace=wrap;html=1;" parent="1" vertex="1">
          <mxGeometry x="140" y="20" width="80" height="50" as="geometry" />
        </mxCell>
        <mxCell id="jLHxoOQeCF7ietmoerU6-13" style="edgeStyle=orthogonalEdgeStyle;rounded=0;orthogonalLoop=1;jettySize=auto;html=1;entryX=1;entryY=0.5;entryDx=0;entryDy=0;" parent="1" source="jLHxoOQeCF7ietmoerU6-3" target="jLHxoOQeCF7ietmoerU6-4" edge="1">
          <mxGeometry relative="1" as="geometry">
            <Array as="points">
              <mxPoint x="120" y="140" />
              <mxPoint x="180" y="140" />
              <mxPoint x="180" y="170" />
              <mxPoint x="40" y="170" />
              <mxPoint x="40" y="230" />
              <mxPoint x="-40" y="230" />
            </Array>
          </mxGeometry>
        </mxCell>
        <mxCell id="jLHxoOQeCF7ietmoerU6-15" style="edgeStyle=orthogonalEdgeStyle;rounded=0;orthogonalLoop=1;jettySize=auto;html=1;exitX=0.5;exitY=1;exitDx=0;exitDy=0;entryX=0.5;entryY=0;entryDx=0;entryDy=0;" parent="1" source="jLHxoOQeCF7ietmoerU6-3" target="jLHxoOQeCF7ietmoerU6-14" edge="1">
          <mxGeometry relative="1" as="geometry">
            <Array as="points">
              <mxPoint x="120" y="140" />
              <mxPoint x="180" y="140" />
            </Array>
          </mxGeometry>
        </mxCell>
        <mxCell id="jLHxoOQeCF7ietmoerU6-23" style="edgeStyle=orthogonalEdgeStyle;rounded=0;orthogonalLoop=1;jettySize=auto;html=1;exitX=0;exitY=1;exitDx=0;exitDy=0;entryX=1;entryY=0.5;entryDx=0;entryDy=0;" parent="1" source="jLHxoOQeCF7ietmoerU6-3" target="jLHxoOQeCF7ietmoerU6-22" edge="1">
          <mxGeometry relative="1" as="geometry" />
        </mxCell>
        <mxCell id="jLHxoOQeCF7ietmoerU6-33" style="edgeStyle=orthogonalEdgeStyle;rounded=0;orthogonalLoop=1;jettySize=auto;html=1;exitX=1;exitY=1;exitDx=0;exitDy=0;entryX=0.5;entryY=0;entryDx=0;entryDy=0;" parent="1" source="jLHxoOQeCF7ietmoerU6-3" target="jLHxoOQeCF7ietmoerU6-31" edge="1">
          <mxGeometry relative="1" as="geometry">
            <Array as="points">
              <mxPoint x="208" y="200" />
              <mxPoint x="310" y="200" />
            </Array>
          </mxGeometry>
        </mxCell>
        <mxCell id="jLHxoOQeCF7ietmoerU6-35" style="edgeStyle=orthogonalEdgeStyle;rounded=0;orthogonalLoop=1;jettySize=auto;html=1;exitX=1;exitY=0.5;exitDx=0;exitDy=0;entryX=0.5;entryY=0;entryDx=0;entryDy=0;" parent="1" edge="1">
          <mxGeometry relative="1" as="geometry">
            <Array as="points">
              <mxPoint x="150" y="102" />
              <mxPoint x="150" y="117" />
              <mxPoint x="220" y="117" />
              <mxPoint x="220" y="187" />
              <mxPoint x="360" y="187" />
            </Array>
            <mxPoint x="160.00000000000273" y="102" as="sourcePoint" />
            <mxPoint x="360" y="247" as="targetPoint" />
          </mxGeometry>
        </mxCell>
        <mxCell id="jLHxoOQeCF7ietmoerU6-37" style="edgeStyle=orthogonalEdgeStyle;rounded=0;orthogonalLoop=1;jettySize=auto;html=1;exitX=1;exitY=0.5;exitDx=0;exitDy=0;entryX=0.5;entryY=0;entryDx=0;entryDy=0;" parent="1" source="jLHxoOQeCF7ietmoerU6-3" target="jLHxoOQeCF7ietmoerU6-36" edge="1">
          <mxGeometry relative="1" as="geometry">
            <Array as="points">
              <mxPoint x="160" y="110" />
              <mxPoint x="230" y="110" />
              <mxPoint x="230" y="180" />
              <mxPoint x="420" y="180" />
            </Array>
          </mxGeometry>
        </mxCell>
        <mxCell id="jLHxoOQeCF7ietmoerU6-39" style="edgeStyle=orthogonalEdgeStyle;rounded=0;orthogonalLoop=1;jettySize=auto;html=1;exitX=1;exitY=0.5;exitDx=0;exitDy=0;entryX=0;entryY=0;entryDx=0;entryDy=0;" parent="1" source="jLHxoOQeCF7ietmoerU6-3" target="jLHxoOQeCF7ietmoerU6-38" edge="1">
          <mxGeometry relative="1" as="geometry">
            <Array as="points">
              <mxPoint x="240" y="105" />
              <mxPoint x="240" y="167" />
            </Array>
          </mxGeometry>
        </mxCell>
        <mxCell id="jLHxoOQeCF7ietmoerU6-3" value="Fazer Login" style="ellipse;whiteSpace=wrap;html=1;" parent="1" vertex="1">
          <mxGeometry x="80" y="80" width="80" height="50" as="geometry" />
        </mxCell>
        <mxCell id="jLHxoOQeCF7ietmoerU6-4" value="Alterar curso" style="ellipse;whiteSpace=wrap;html=1;" parent="1" vertex="1">
          <mxGeometry x="-120" y="210" width="80" height="50" as="geometry" />
        </mxCell>
        <mxCell id="jLHxoOQeCF7ietmoerU6-8" value="Alterar senha" style="ellipse;whiteSpace=wrap;html=1;" parent="1" vertex="1">
          <mxGeometry x="334" y="60" width="80" height="50" as="geometry" />
        </mxCell>
        <mxCell id="jLHxoOQeCF7ietmoerU6-10" value="&amp;lt;&amp;lt;include&amp;gt;&amp;gt;" style="html=1;verticalAlign=bottom;labelBackgroundColor=none;endArrow=open;endFill=0;dashed=1;rounded=0;exitX=1;exitY=0.5;exitDx=0;exitDy=0;entryX=0;entryY=0.5;entryDx=0;entryDy=0;" parent="1" source="jLHxoOQeCF7ietmoerU6-2" target="jLHxoOQeCF7ietmoerU6-8" edge="1">
          <mxGeometry x="0.1757" y="9" width="160" relative="1" as="geometry">
            <mxPoint x="210" y="120" as="sourcePoint" />
            <mxPoint x="310" y="75" as="targetPoint" />
            <mxPoint as="offset" />
          </mxGeometry>
        </mxCell>
        <mxCell id="jLHxoOQeCF7ietmoerU6-11" value="&amp;lt;&amp;lt;include&amp;gt;&amp;gt;" style="html=1;verticalAlign=bottom;labelBackgroundColor=none;endArrow=open;endFill=0;dashed=1;rounded=0;exitX=1;exitY=0.5;exitDx=0;exitDy=0;entryX=0;entryY=0.5;entryDx=0;entryDy=0;" parent="1" source="jLHxoOQeCF7ietmoerU6-3" target="jLHxoOQeCF7ietmoerU6-8" edge="1">
          <mxGeometry x="-0.0999" y="4" width="160" relative="1" as="geometry">
            <mxPoint x="320" y="220" as="sourcePoint" />
            <mxPoint x="461" y="233" as="targetPoint" />
            <mxPoint x="-1" as="offset" />
          </mxGeometry>
        </mxCell>
        <mxCell id="jLHxoOQeCF7ietmoerU6-21" style="edgeStyle=orthogonalEdgeStyle;rounded=0;orthogonalLoop=1;jettySize=auto;html=1;entryX=0.5;entryY=0;entryDx=0;entryDy=0;" parent="1" target="jLHxoOQeCF7ietmoerU6-20" edge="1">
          <mxGeometry relative="1" as="geometry">
            <Array as="points">
              <mxPoint x="80" y="224" />
            </Array>
            <mxPoint x="142.81318912764868" y="224.20981764595615" as="sourcePoint" />
            <mxPoint x="80" y="260" as="targetPoint" />
          </mxGeometry>
        </mxCell>
        <mxCell id="jLHxoOQeCF7ietmoerU6-24" style="edgeStyle=orthogonalEdgeStyle;rounded=0;orthogonalLoop=1;jettySize=auto;html=1;exitX=0.5;exitY=1;exitDx=0;exitDy=0;entryX=0.5;entryY=0;entryDx=0;entryDy=0;" parent="1" source="jLHxoOQeCF7ietmoerU6-14" target="jLHxoOQeCF7ietmoerU6-18" edge="1">
          <mxGeometry relative="1" as="geometry" />
        </mxCell>
        <mxCell id="jLHxoOQeCF7ietmoerU6-26" style="edgeStyle=orthogonalEdgeStyle;rounded=0;orthogonalLoop=1;jettySize=auto;html=1;exitX=1;exitY=0.5;exitDx=0;exitDy=0;entryX=0.5;entryY=0;entryDx=0;entryDy=0;" parent="1" source="jLHxoOQeCF7ietmoerU6-14" target="jLHxoOQeCF7ietmoerU6-25" edge="1">
          <mxGeometry relative="1" as="geometry">
            <Array as="points">
              <mxPoint x="220" y="230" />
              <mxPoint x="260" y="230" />
            </Array>
          </mxGeometry>
        </mxCell>
        <mxCell id="jLHxoOQeCF7ietmoerU6-14" value="Acessar &quot;Cadastro Acadêmico&quot;" style="ellipse;whiteSpace=wrap;html=1;" parent="1" vertex="1">
          <mxGeometry x="140" y="200" width="80" height="50" as="geometry" />
        </mxCell>
        <mxCell id="jLHxoOQeCF7ietmoerU6-18" value="Acessar aba &quot;Dados pessoas&quot;" style="ellipse;whiteSpace=wrap;html=1;" parent="1" vertex="1">
          <mxGeometry x="130" y="270" width="80" height="50" as="geometry" />
        </mxCell>
        <mxCell id="jLHxoOQeCF7ietmoerU6-20" value="Acessar aba &quot;Dados profissionais&quot;" style="ellipse;whiteSpace=wrap;html=1;" parent="1" vertex="1">
          <mxGeometry x="40" y="270" width="80" height="50" as="geometry" />
        </mxCell>
        <mxCell id="jLHxoOQeCF7ietmoerU6-22" value="Sair da conta" style="ellipse;whiteSpace=wrap;html=1;" parent="1" vertex="1">
          <mxGeometry x="-120" y="140" width="80" height="50" as="geometry" />
        </mxCell>
        <mxCell id="jLHxoOQeCF7ietmoerU6-25" value="Acessar aba &quot;Responsáveis&quot;" style="ellipse;whiteSpace=wrap;html=1;" parent="1" vertex="1">
          <mxGeometry x="220" y="270" width="80" height="50" as="geometry" />
        </mxCell>
        <mxCell id="jLHxoOQeCF7ietmoerU6-27" value="Editar informações" style="ellipse;whiteSpace=wrap;html=1;" parent="1" vertex="1">
          <mxGeometry x="130" y="360" width="80" height="50" as="geometry" />
        </mxCell>
        <mxCell id="jLHxoOQeCF7ietmoerU6-28" value="&amp;lt;&amp;lt;extend&amp;gt;&amp;gt;" style="html=1;verticalAlign=bottom;labelBackgroundColor=none;endArrow=open;endFill=0;dashed=1;rounded=0;exitX=0.5;exitY=1;exitDx=0;exitDy=0;entryX=1;entryY=0.5;entryDx=0;entryDy=0;" parent="1" source="jLHxoOQeCF7ietmoerU6-25" target="jLHxoOQeCF7ietmoerU6-27" edge="1">
          <mxGeometry width="160" relative="1" as="geometry">
            <mxPoint x="260" y="390" as="sourcePoint" />
            <mxPoint x="420" y="390" as="targetPoint" />
          </mxGeometry>
        </mxCell>
        <mxCell id="jLHxoOQeCF7ietmoerU6-29" value="&amp;lt;&amp;lt;extend&amp;gt;&amp;gt;" style="html=1;verticalAlign=bottom;labelBackgroundColor=none;endArrow=open;endFill=0;dashed=1;rounded=0;exitX=0.5;exitY=1;exitDx=0;exitDy=0;entryX=0;entryY=0.5;entryDx=0;entryDy=0;" parent="1" source="jLHxoOQeCF7ietmoerU6-20" target="jLHxoOQeCF7ietmoerU6-27" edge="1">
          <mxGeometry width="160" relative="1" as="geometry">
            <mxPoint x="101" y="340" as="sourcePoint" />
            <mxPoint x="40" y="388" as="targetPoint" />
          </mxGeometry>
        </mxCell>
        <mxCell id="jLHxoOQeCF7ietmoerU6-30" value="&amp;lt;&amp;lt;extend&amp;gt;&amp;gt;" style="html=1;verticalAlign=bottom;labelBackgroundColor=none;endArrow=open;endFill=0;dashed=1;rounded=0;exitX=0.5;exitY=1;exitDx=0;exitDy=0;entryX=0.5;entryY=0;entryDx=0;entryDy=0;" parent="1" source="jLHxoOQeCF7ietmoerU6-18" target="jLHxoOQeCF7ietmoerU6-27" edge="1">
          <mxGeometry width="160" relative="1" as="geometry">
            <mxPoint x="270" y="330" as="sourcePoint" />
            <mxPoint x="220" y="395" as="targetPoint" />
          </mxGeometry>
        </mxCell>
        <mxCell id="jLHxoOQeCF7ietmoerU6-41" style="edgeStyle=orthogonalEdgeStyle;rounded=0;orthogonalLoop=1;jettySize=auto;html=1;exitX=1;exitY=0;exitDx=0;exitDy=0;entryX=0;entryY=0.5;entryDx=0;entryDy=0;" parent="1" source="jLHxoOQeCF7ietmoerU6-31" target="jLHxoOQeCF7ietmoerU6-40" edge="1">
          <mxGeometry relative="1" as="geometry">
            <Array as="points">
              <mxPoint x="340" y="417" />
              <mxPoint x="340" y="355" />
            </Array>
          </mxGeometry>
        </mxCell>
        <mxCell id="jLHxoOQeCF7ietmoerU6-48" style="edgeStyle=orthogonalEdgeStyle;rounded=0;orthogonalLoop=1;jettySize=auto;html=1;" parent="1" source="jLHxoOQeCF7ietmoerU6-31" edge="1">
          <mxGeometry relative="1" as="geometry">
            <mxPoint x="379.9999999999998" y="435" as="targetPoint" />
          </mxGeometry>
        </mxCell>
        <mxCell id="jLHxoOQeCF7ietmoerU6-52" style="edgeStyle=orthogonalEdgeStyle;rounded=0;orthogonalLoop=1;jettySize=auto;html=1;exitX=1;exitY=1;exitDx=0;exitDy=0;entryX=0;entryY=0.5;entryDx=0;entryDy=0;" parent="1" source="jLHxoOQeCF7ietmoerU6-31" target="jLHxoOQeCF7ietmoerU6-49" edge="1">
          <mxGeometry relative="1" as="geometry">
            <Array as="points">
              <mxPoint x="339" y="535" />
            </Array>
          </mxGeometry>
        </mxCell>
        <mxCell id="jLHxoOQeCF7ietmoerU6-63" style="edgeStyle=orthogonalEdgeStyle;rounded=0;orthogonalLoop=1;jettySize=auto;html=1;entryX=0;entryY=0.5;entryDx=0;entryDy=0;" parent="1" source="jLHxoOQeCF7ietmoerU6-31" target="jLHxoOQeCF7ietmoerU6-62" edge="1">
          <mxGeometry relative="1" as="geometry" />
        </mxCell>
        <mxCell id="jLHxoOQeCF7ietmoerU6-73" style="edgeStyle=orthogonalEdgeStyle;rounded=0;orthogonalLoop=1;jettySize=auto;html=1;entryX=1;entryY=0.5;entryDx=0;entryDy=0;" parent="1" source="jLHxoOQeCF7ietmoerU6-31" target="jLHxoOQeCF7ietmoerU6-71" edge="1">
          <mxGeometry relative="1" as="geometry" />
        </mxCell>
        <mxCell id="jLHxoOQeCF7ietmoerU6-82" style="edgeStyle=orthogonalEdgeStyle;rounded=0;orthogonalLoop=1;jettySize=auto;html=1;exitX=0;exitY=0;exitDx=0;exitDy=0;entryX=1;entryY=0.5;entryDx=0;entryDy=0;" parent="1" source="jLHxoOQeCF7ietmoerU6-31" target="jLHxoOQeCF7ietmoerU6-80" edge="1">
          <mxGeometry relative="1" as="geometry" />
        </mxCell>
        <mxCell id="jLHxoOQeCF7ietmoerU6-84" style="edgeStyle=orthogonalEdgeStyle;rounded=0;orthogonalLoop=1;jettySize=auto;html=1;exitX=0;exitY=1;exitDx=0;exitDy=0;entryX=0.5;entryY=0;entryDx=0;entryDy=0;" parent="1" source="jLHxoOQeCF7ietmoerU6-31" target="jLHxoOQeCF7ietmoerU6-83" edge="1">
          <mxGeometry relative="1" as="geometry">
            <Array as="points">
              <mxPoint x="282" y="460" />
              <mxPoint x="240" y="460" />
            </Array>
          </mxGeometry>
        </mxCell>
        <mxCell id="jLHxoOQeCF7ietmoerU6-86" style="edgeStyle=orthogonalEdgeStyle;rounded=0;orthogonalLoop=1;jettySize=auto;html=1;exitX=0.5;exitY=1;exitDx=0;exitDy=0;entryX=0.5;entryY=0;entryDx=0;entryDy=0;" parent="1" source="jLHxoOQeCF7ietmoerU6-31" target="jLHxoOQeCF7ietmoerU6-85" edge="1">
          <mxGeometry relative="1" as="geometry">
            <Array as="points">
              <mxPoint x="310" y="580" />
              <mxPoint x="210" y="580" />
            </Array>
          </mxGeometry>
        </mxCell>
        <mxCell id="jLHxoOQeCF7ietmoerU6-88" style="edgeStyle=orthogonalEdgeStyle;rounded=0;orthogonalLoop=1;jettySize=auto;html=1;entryX=0.5;entryY=0;entryDx=0;entryDy=0;" parent="1" source="jLHxoOQeCF7ietmoerU6-31" target="jLHxoOQeCF7ietmoerU6-87" edge="1">
          <mxGeometry relative="1" as="geometry">
            <Array as="points">
              <mxPoint x="310" y="580" />
              <mxPoint x="120" y="580" />
            </Array>
          </mxGeometry>
        </mxCell>
        <mxCell id="jLHxoOQeCF7ietmoerU6-90" style="edgeStyle=orthogonalEdgeStyle;rounded=0;orthogonalLoop=1;jettySize=auto;html=1;entryX=0.5;entryY=0;entryDx=0;entryDy=0;" parent="1" source="jLHxoOQeCF7ietmoerU6-31" target="jLHxoOQeCF7ietmoerU6-89" edge="1">
          <mxGeometry relative="1" as="geometry">
            <Array as="points">
              <mxPoint x="310" y="660" />
              <mxPoint x="210" y="660" />
            </Array>
          </mxGeometry>
        </mxCell>
        <mxCell id="jLHxoOQeCF7ietmoerU6-98" style="edgeStyle=orthogonalEdgeStyle;rounded=0;orthogonalLoop=1;jettySize=auto;html=1;entryX=1;entryY=0.5;entryDx=0;entryDy=0;" parent="1" source="jLHxoOQeCF7ietmoerU6-31" target="jLHxoOQeCF7ietmoerU6-95" edge="1">
          <mxGeometry relative="1" as="geometry">
            <Array as="points">
              <mxPoint x="310" y="775" />
            </Array>
          </mxGeometry>
        </mxCell>
        <mxCell id="jLHxoOQeCF7ietmoerU6-103" style="edgeStyle=orthogonalEdgeStyle;rounded=0;orthogonalLoop=1;jettySize=auto;html=1;entryX=0;entryY=0.5;entryDx=0;entryDy=0;" parent="1" source="jLHxoOQeCF7ietmoerU6-31" target="jLHxoOQeCF7ietmoerU6-100" edge="1">
          <mxGeometry relative="1" as="geometry" />
        </mxCell>
        <mxCell id="jLHxoOQeCF7ietmoerU6-118" style="edgeStyle=orthogonalEdgeStyle;rounded=0;orthogonalLoop=1;jettySize=auto;html=1;entryX=0;entryY=0.5;entryDx=0;entryDy=0;" parent="1" source="jLHxoOQeCF7ietmoerU6-31" target="jLHxoOQeCF7ietmoerU6-104" edge="1">
          <mxGeometry relative="1" as="geometry" />
        </mxCell>
        <mxCell id="jLHxoOQeCF7ietmoerU6-119" style="edgeStyle=orthogonalEdgeStyle;rounded=0;orthogonalLoop=1;jettySize=auto;html=1;entryX=0;entryY=0.5;entryDx=0;entryDy=0;" parent="1" source="jLHxoOQeCF7ietmoerU6-31" target="jLHxoOQeCF7ietmoerU6-109" edge="1">
          <mxGeometry relative="1" as="geometry" />
        </mxCell>
        <mxCell id="jLHxoOQeCF7ietmoerU6-120" style="edgeStyle=orthogonalEdgeStyle;rounded=0;orthogonalLoop=1;jettySize=auto;html=1;entryX=0;entryY=0.5;entryDx=0;entryDy=0;" parent="1" source="jLHxoOQeCF7ietmoerU6-31" target="jLHxoOQeCF7ietmoerU6-114" edge="1">
          <mxGeometry relative="1" as="geometry" />
        </mxCell>
        <mxCell id="jLHxoOQeCF7ietmoerU6-121" style="edgeStyle=orthogonalEdgeStyle;rounded=0;orthogonalLoop=1;jettySize=auto;html=1;entryX=0.5;entryY=0;entryDx=0;entryDy=0;" parent="1" source="jLHxoOQeCF7ietmoerU6-31" target="jLHxoOQeCF7ietmoerU6-105" edge="1">
          <mxGeometry relative="1" as="geometry">
            <Array as="points">
              <mxPoint x="310" y="760" />
              <mxPoint x="480" y="760" />
            </Array>
          </mxGeometry>
        </mxCell>
        <mxCell id="jLHxoOQeCF7ietmoerU6-122" style="edgeStyle=orthogonalEdgeStyle;rounded=0;orthogonalLoop=1;jettySize=auto;html=1;entryX=0.5;entryY=0;entryDx=0;entryDy=0;" parent="1" source="jLHxoOQeCF7ietmoerU6-31" target="jLHxoOQeCF7ietmoerU6-106" edge="1">
          <mxGeometry relative="1" as="geometry">
            <Array as="points">
              <mxPoint x="310" y="760" />
              <mxPoint x="580" y="760" />
            </Array>
          </mxGeometry>
        </mxCell>
        <mxCell id="jLHxoOQeCF7ietmoerU6-123" style="edgeStyle=orthogonalEdgeStyle;rounded=0;orthogonalLoop=1;jettySize=auto;html=1;entryX=0.5;entryY=0;entryDx=0;entryDy=0;" parent="1" source="jLHxoOQeCF7ietmoerU6-31" target="jLHxoOQeCF7ietmoerU6-107" edge="1">
          <mxGeometry relative="1" as="geometry">
            <Array as="points">
              <mxPoint x="310" y="760" />
              <mxPoint x="680" y="760" />
            </Array>
          </mxGeometry>
        </mxCell>
        <mxCell id="jLHxoOQeCF7ietmoerU6-124" style="edgeStyle=orthogonalEdgeStyle;rounded=0;orthogonalLoop=1;jettySize=auto;html=1;entryX=0.5;entryY=0;entryDx=0;entryDy=0;" parent="1" source="jLHxoOQeCF7ietmoerU6-31" target="jLHxoOQeCF7ietmoerU6-108" edge="1">
          <mxGeometry relative="1" as="geometry">
            <Array as="points">
              <mxPoint x="310" y="760" />
              <mxPoint x="780" y="760" />
            </Array>
          </mxGeometry>
        </mxCell>
        <mxCell id="jLHxoOQeCF7ietmoerU6-125" style="edgeStyle=orthogonalEdgeStyle;rounded=0;orthogonalLoop=1;jettySize=auto;html=1;entryX=0.5;entryY=0;entryDx=0;entryDy=0;" parent="1" source="jLHxoOQeCF7ietmoerU6-31" target="jLHxoOQeCF7ietmoerU6-110" edge="1">
          <mxGeometry relative="1" as="geometry">
            <Array as="points">
              <mxPoint x="310" y="870" />
              <mxPoint x="480" y="870" />
              <mxPoint x="480" y="910" />
            </Array>
          </mxGeometry>
        </mxCell>
        <mxCell id="jLHxoOQeCF7ietmoerU6-126" style="edgeStyle=orthogonalEdgeStyle;rounded=0;orthogonalLoop=1;jettySize=auto;html=1;entryX=0.5;entryY=0;entryDx=0;entryDy=0;" parent="1" source="jLHxoOQeCF7ietmoerU6-31" target="jLHxoOQeCF7ietmoerU6-111" edge="1">
          <mxGeometry relative="1" as="geometry">
            <Array as="points">
              <mxPoint x="310" y="870" />
              <mxPoint x="580" y="870" />
              <mxPoint x="580" y="910" />
            </Array>
          </mxGeometry>
        </mxCell>
        <mxCell id="jLHxoOQeCF7ietmoerU6-127" style="edgeStyle=orthogonalEdgeStyle;rounded=0;orthogonalLoop=1;jettySize=auto;html=1;entryX=0.5;entryY=0;entryDx=0;entryDy=0;" parent="1" source="jLHxoOQeCF7ietmoerU6-31" target="jLHxoOQeCF7ietmoerU6-112" edge="1">
          <mxGeometry relative="1" as="geometry">
            <Array as="points">
              <mxPoint x="310" y="870" />
              <mxPoint x="680" y="870" />
              <mxPoint x="680" y="910" />
            </Array>
          </mxGeometry>
        </mxCell>
        <mxCell id="jLHxoOQeCF7ietmoerU6-128" style="edgeStyle=orthogonalEdgeStyle;rounded=0;orthogonalLoop=1;jettySize=auto;html=1;" parent="1" source="jLHxoOQeCF7ietmoerU6-31" target="jLHxoOQeCF7ietmoerU6-113" edge="1">
          <mxGeometry relative="1" as="geometry">
            <Array as="points">
              <mxPoint x="310" y="870" />
              <mxPoint x="780" y="870" />
            </Array>
          </mxGeometry>
        </mxCell>
        <mxCell id="jLHxoOQeCF7ietmoerU6-129" style="edgeStyle=orthogonalEdgeStyle;rounded=0;orthogonalLoop=1;jettySize=auto;html=1;entryX=0.5;entryY=0;entryDx=0;entryDy=0;" parent="1" source="jLHxoOQeCF7ietmoerU6-31" target="jLHxoOQeCF7ietmoerU6-114" edge="1">
          <mxGeometry relative="1" as="geometry">
            <Array as="points">
              <mxPoint x="310" y="990" />
              <mxPoint x="380" y="990" />
            </Array>
          </mxGeometry>
        </mxCell>
        <mxCell id="jLHxoOQeCF7ietmoerU6-130" style="edgeStyle=orthogonalEdgeStyle;rounded=0;orthogonalLoop=1;jettySize=auto;html=1;entryX=0.5;entryY=0;entryDx=0;entryDy=0;" parent="1" source="jLHxoOQeCF7ietmoerU6-31" target="jLHxoOQeCF7ietmoerU6-115" edge="1">
          <mxGeometry relative="1" as="geometry">
            <Array as="points">
              <mxPoint x="310" y="990" />
              <mxPoint x="480" y="990" />
            </Array>
          </mxGeometry>
        </mxCell>
        <mxCell id="jLHxoOQeCF7ietmoerU6-131" style="edgeStyle=orthogonalEdgeStyle;rounded=0;orthogonalLoop=1;jettySize=auto;html=1;entryX=0.5;entryY=0;entryDx=0;entryDy=0;" parent="1" source="jLHxoOQeCF7ietmoerU6-31" target="jLHxoOQeCF7ietmoerU6-116" edge="1">
          <mxGeometry relative="1" as="geometry">
            <Array as="points">
              <mxPoint x="310" y="990" />
              <mxPoint x="590" y="990" />
            </Array>
          </mxGeometry>
        </mxCell>
        <mxCell id="jLHxoOQeCF7ietmoerU6-132" style="edgeStyle=orthogonalEdgeStyle;rounded=0;orthogonalLoop=1;jettySize=auto;html=1;" parent="1" source="jLHxoOQeCF7ietmoerU6-31" target="jLHxoOQeCF7ietmoerU6-117" edge="1">
          <mxGeometry relative="1" as="geometry">
            <Array as="points">
              <mxPoint x="310" y="990" />
              <mxPoint x="690" y="990" />
            </Array>
          </mxGeometry>
        </mxCell>
        <mxCell id="jLHxoOQeCF7ietmoerU6-31" value="Acessar menu lateral" style="ellipse;whiteSpace=wrap;html=1;" parent="1" vertex="1">
          <mxGeometry x="270" y="410" width="80" height="50" as="geometry" />
        </mxCell>
        <mxCell id="jLHxoOQeCF7ietmoerU6-34" value="Aumentar fonte" style="ellipse;whiteSpace=wrap;html=1;" parent="1" vertex="1">
          <mxGeometry x="320" y="250" width="80" height="50" as="geometry" />
        </mxCell>
        <mxCell id="jLHxoOQeCF7ietmoerU6-36" value="Diminuir fonte" style="ellipse;whiteSpace=wrap;html=1;" parent="1" vertex="1">
          <mxGeometry x="380" y="210" width="80" height="50" as="geometry" />
        </mxCell>
        <mxCell id="jLHxoOQeCF7ietmoerU6-38" value="Ativar modo escuro" style="ellipse;whiteSpace=wrap;html=1;" parent="1" vertex="1">
          <mxGeometry x="440" y="160" width="80" height="50" as="geometry" />
        </mxCell>
        <mxCell id="jLHxoOQeCF7ietmoerU6-40" value="Acessar mural" style="ellipse;whiteSpace=wrap;html=1;" parent="1" vertex="1">
          <mxGeometry x="400" y="320" width="80" height="50" as="geometry" />
        </mxCell>
        <mxCell id="jLHxoOQeCF7ietmoerU6-42" value="Alterar layout" style="ellipse;whiteSpace=wrap;html=1;" parent="1" vertex="1">
          <mxGeometry x="520" y="290" width="80" height="50" as="geometry" />
        </mxCell>
        <mxCell id="jLHxoOQeCF7ietmoerU6-44" value="&amp;lt;&amp;lt;extend&amp;gt;&amp;gt;" style="html=1;verticalAlign=bottom;labelBackgroundColor=none;endArrow=open;endFill=0;dashed=1;rounded=0;entryX=0;entryY=0;entryDx=0;entryDy=0;exitX=0.5;exitY=0;exitDx=0;exitDy=0;" parent="1" target="jLHxoOQeCF7ietmoerU6-42" edge="1" source="jLHxoOQeCF7ietmoerU6-40">
          <mxGeometry width="160" relative="1" as="geometry">
            <mxPoint x="410" y="330" as="sourcePoint" />
            <mxPoint x="570" y="330" as="targetPoint" />
          </mxGeometry>
        </mxCell>
        <mxCell id="jLHxoOQeCF7ietmoerU6-45" value="Acessar calendário" style="ellipse;whiteSpace=wrap;html=1;" parent="1" vertex="1">
          <mxGeometry x="373" y="410" width="80" height="50" as="geometry" />
        </mxCell>
        <mxCell id="jLHxoOQeCF7ietmoerU6-46" value="&amp;lt;&amp;lt;extend&amp;gt;&amp;gt;" style="html=1;verticalAlign=bottom;labelBackgroundColor=none;endArrow=open;endFill=0;dashed=1;rounded=0;entryX=1;entryY=0;entryDx=0;entryDy=0;exitX=0.5;exitY=1;exitDx=0;exitDy=0;" parent="1" source="jLHxoOQeCF7ietmoerU6-40" target="jLHxoOQeCF7ietmoerU6-45" edge="1">
          <mxGeometry width="160" relative="1" as="geometry">
            <mxPoint x="420" y="340" as="sourcePoint" />
            <mxPoint x="481" y="318" as="targetPoint" />
          </mxGeometry>
        </mxCell>
        <mxCell id="jLHxoOQeCF7ietmoerU6-49" value="Acessar financeiro" style="ellipse;whiteSpace=wrap;html=1;" parent="1" vertex="1">
          <mxGeometry x="440" y="510" width="80" height="50" as="geometry" />
        </mxCell>
        <mxCell id="jLHxoOQeCF7ietmoerU6-50" value="&amp;lt;&amp;lt;extend&amp;gt;&amp;gt;" style="html=1;verticalAlign=bottom;labelBackgroundColor=none;endArrow=open;endFill=0;dashed=1;rounded=0;entryX=1;entryY=0.5;entryDx=0;entryDy=0;exitX=1;exitY=0.5;exitDx=0;exitDy=0;" parent="1" source="jLHxoOQeCF7ietmoerU6-40" target="jLHxoOQeCF7ietmoerU6-49" edge="1">
          <mxGeometry width="160" relative="1" as="geometry">
            <mxPoint x="420" y="340" as="sourcePoint" />
            <mxPoint x="481" y="318" as="targetPoint" />
          </mxGeometry>
        </mxCell>
        <mxCell id="jLHxoOQeCF7ietmoerU6-54" value="Gerar boleto" style="ellipse;whiteSpace=wrap;html=1;" parent="1" vertex="1">
          <mxGeometry x="540" y="410" width="80" height="50" as="geometry" />
        </mxCell>
        <mxCell id="jLHxoOQeCF7ietmoerU6-55" value="&amp;lt;&amp;lt;include&amp;gt;&amp;gt;" style="html=1;verticalAlign=bottom;labelBackgroundColor=none;endArrow=open;endFill=0;dashed=1;rounded=0;entryX=0;entryY=0.5;entryDx=0;entryDy=0;exitX=1;exitY=0.5;exitDx=0;exitDy=0;" parent="1" source="jLHxoOQeCF7ietmoerU6-40" target="jLHxoOQeCF7ietmoerU6-54" edge="1">
          <mxGeometry x="0.105" y="8" width="160" relative="1" as="geometry">
            <mxPoint x="510" y="390" as="sourcePoint" />
            <mxPoint x="568" y="390" as="targetPoint" />
            <mxPoint as="offset" />
          </mxGeometry>
        </mxCell>
        <mxCell id="jLHxoOQeCF7ietmoerU6-56" value="Gerar código de barra" style="ellipse;whiteSpace=wrap;html=1;" parent="1" vertex="1">
          <mxGeometry x="650" y="420" width="80" height="50" as="geometry" />
        </mxCell>
        <mxCell id="jLHxoOQeCF7ietmoerU6-57" value="&amp;lt;&amp;lt;include&amp;gt;&amp;gt;" style="html=1;verticalAlign=bottom;labelBackgroundColor=none;endArrow=open;endFill=0;dashed=1;rounded=0;entryX=0;entryY=0;entryDx=0;entryDy=0;exitX=1;exitY=0.5;exitDx=0;exitDy=0;" parent="1" source="jLHxoOQeCF7ietmoerU6-40" target="jLHxoOQeCF7ietmoerU6-56" edge="1">
          <mxGeometry x="0.105" y="8" width="160" relative="1" as="geometry">
            <mxPoint x="464" y="365" as="sourcePoint" />
            <mxPoint x="560" y="405" as="targetPoint" />
            <mxPoint as="offset" />
          </mxGeometry>
        </mxCell>
        <mxCell id="jLHxoOQeCF7ietmoerU6-60" value="&amp;lt;&amp;lt;include&amp;gt;&amp;gt;" style="html=1;verticalAlign=bottom;labelBackgroundColor=none;endArrow=open;endFill=0;dashed=1;rounded=0;entryX=0.5;entryY=1;entryDx=0;entryDy=0;exitX=1;exitY=0.5;exitDx=0;exitDy=0;" parent="1" source="jLHxoOQeCF7ietmoerU6-49" target="jLHxoOQeCF7ietmoerU6-54" edge="1">
          <mxGeometry x="0.105" y="8" width="160" relative="1" as="geometry">
            <mxPoint x="550" y="570" as="sourcePoint" />
            <mxPoint x="550" y="485" as="targetPoint" />
            <mxPoint as="offset" />
          </mxGeometry>
        </mxCell>
        <mxCell id="jLHxoOQeCF7ietmoerU6-61" value="&amp;lt;&amp;lt;include&amp;gt;&amp;gt;" style="html=1;verticalAlign=bottom;labelBackgroundColor=none;endArrow=open;endFill=0;dashed=1;rounded=0;entryX=0;entryY=1;entryDx=0;entryDy=0;exitX=1;exitY=0.5;exitDx=0;exitDy=0;" parent="1" source="jLHxoOQeCF7ietmoerU6-49" target="jLHxoOQeCF7ietmoerU6-56" edge="1">
          <mxGeometry x="0.2963" y="-14" width="160" relative="1" as="geometry">
            <mxPoint x="530" y="545" as="sourcePoint" />
            <mxPoint x="580" y="490" as="targetPoint" />
            <mxPoint x="1" as="offset" />
          </mxGeometry>
        </mxCell>
        <mxCell id="jLHxoOQeCF7ietmoerU6-62" value="Acessar calendário" style="ellipse;whiteSpace=wrap;html=1;" parent="1" vertex="1">
          <mxGeometry x="340" y="560" width="80" height="50" as="geometry" />
        </mxCell>
        <mxCell id="jLHxoOQeCF7ietmoerU6-64" value="Mudar período de visualização" style="ellipse;whiteSpace=wrap;html=1;" parent="1" vertex="1">
          <mxGeometry x="560" y="560" width="80" height="50" as="geometry" />
        </mxCell>
        <mxCell id="jLHxoOQeCF7ietmoerU6-66" value="&amp;lt;&amp;lt;extend&amp;gt;&amp;gt;" style="html=1;verticalAlign=bottom;labelBackgroundColor=none;endArrow=open;endFill=0;dashed=1;rounded=0;entryX=0;entryY=0.5;entryDx=0;entryDy=0;exitX=1;exitY=0.5;exitDx=0;exitDy=0;" parent="1" source="jLHxoOQeCF7ietmoerU6-62" target="jLHxoOQeCF7ietmoerU6-64" edge="1">
          <mxGeometry width="160" relative="1" as="geometry">
            <mxPoint x="560" y="510" as="sourcePoint" />
            <mxPoint x="626" y="690" as="targetPoint" />
          </mxGeometry>
        </mxCell>
        <mxCell id="jLHxoOQeCF7ietmoerU6-67" value="Ver detalhes da disciplina" style="ellipse;whiteSpace=wrap;html=1;" parent="1" vertex="1">
          <mxGeometry x="420" y="630" width="80" height="50" as="geometry" />
        </mxCell>
        <mxCell id="jLHxoOQeCF7ietmoerU6-68" value="&amp;lt;&amp;lt;extend&amp;gt;&amp;gt;" style="html=1;verticalAlign=bottom;labelBackgroundColor=none;endArrow=open;endFill=0;dashed=1;rounded=0;entryX=0;entryY=0.5;entryDx=0;entryDy=0;exitX=1;exitY=1;exitDx=0;exitDy=0;" parent="1" source="jLHxoOQeCF7ietmoerU6-62" target="jLHxoOQeCF7ietmoerU6-67" edge="1">
          <mxGeometry width="160" relative="1" as="geometry">
            <mxPoint x="430" y="595" as="sourcePoint" />
            <mxPoint x="490" y="595" as="targetPoint" />
          </mxGeometry>
        </mxCell>
        <mxCell id="jLHxoOQeCF7ietmoerU6-69" value="Fitlrar por disciplina" style="ellipse;whiteSpace=wrap;html=1;" parent="1" vertex="1">
          <mxGeometry x="560" y="620" width="80" height="50" as="geometry" />
        </mxCell>
        <mxCell id="jLHxoOQeCF7ietmoerU6-70" value="&amp;lt;&amp;lt;extend&amp;gt;&amp;gt;" style="html=1;verticalAlign=bottom;labelBackgroundColor=none;endArrow=open;endFill=0;dashed=1;rounded=0;entryX=0;entryY=0.5;entryDx=0;entryDy=0;exitX=0.979;exitY=0.749;exitDx=0;exitDy=0;exitPerimeter=0;" parent="1" source="jLHxoOQeCF7ietmoerU6-62" target="jLHxoOQeCF7ietmoerU6-69" edge="1">
          <mxGeometry width="160" relative="1" as="geometry">
            <mxPoint x="430" y="595" as="sourcePoint" />
            <mxPoint x="490" y="595" as="targetPoint" />
          </mxGeometry>
        </mxCell>
        <mxCell id="jLHxoOQeCF7ietmoerU6-71" value="Acessar Grade curricular" style="ellipse;whiteSpace=wrap;html=1;" parent="1" vertex="1">
          <mxGeometry x="60" y="440" width="80" height="50" as="geometry" />
        </mxCell>
        <mxCell id="jLHxoOQeCF7ietmoerU6-74" value="Aplicar filtros" style="ellipse;whiteSpace=wrap;html=1;" parent="1" vertex="1">
          <mxGeometry x="40" y="520" width="80" height="50" as="geometry" />
        </mxCell>
        <mxCell id="jLHxoOQeCF7ietmoerU6-76" value="&amp;lt;&amp;lt;extend&amp;gt;&amp;gt;" style="html=1;verticalAlign=bottom;labelBackgroundColor=none;endArrow=open;endFill=0;dashed=1;rounded=0;exitX=0.5;exitY=1;exitDx=0;exitDy=0;entryX=0.5;entryY=0;entryDx=0;entryDy=0;" parent="1" source="jLHxoOQeCF7ietmoerU6-71" target="jLHxoOQeCF7ietmoerU6-74" edge="1">
          <mxGeometry x="0.6" y="-4" width="160" relative="1" as="geometry">
            <mxPoint x="130" y="490" as="sourcePoint" />
            <mxPoint x="180" y="555" as="targetPoint" />
            <mxPoint as="offset" />
          </mxGeometry>
        </mxCell>
        <mxCell id="jLHxoOQeCF7ietmoerU6-77" value="Ver matérias por periodo" style="ellipse;whiteSpace=wrap;html=1;" parent="1" vertex="1">
          <mxGeometry x="130" y="520" width="80" height="50" as="geometry" />
        </mxCell>
        <mxCell id="jLHxoOQeCF7ietmoerU6-79" value="&amp;lt;&amp;lt;extend&amp;gt;&amp;gt;" style="html=1;verticalAlign=bottom;labelBackgroundColor=none;endArrow=open;endFill=0;dashed=1;rounded=0;exitX=1;exitY=1;exitDx=0;exitDy=0;entryX=0.5;entryY=0;entryDx=0;entryDy=0;" parent="1" source="jLHxoOQeCF7ietmoerU6-71" target="jLHxoOQeCF7ietmoerU6-77" edge="1">
          <mxGeometry x="0.6" y="-4" width="160" relative="1" as="geometry">
            <mxPoint x="110" y="500" as="sourcePoint" />
            <mxPoint x="90" y="540" as="targetPoint" />
            <mxPoint as="offset" />
          </mxGeometry>
        </mxCell>
        <mxCell id="jLHxoOQeCF7ietmoerU6-80" value="Acessar quadro de horários" style="ellipse;whiteSpace=wrap;html=1;" parent="1" vertex="1">
          <mxGeometry x="10" y="392" width="80" height="50" as="geometry" />
        </mxCell>
        <mxCell id="jLHxoOQeCF7ietmoerU6-83" value="Acessar rematrícula" style="ellipse;whiteSpace=wrap;html=1;" parent="1" vertex="1">
          <mxGeometry x="200" y="470" width="80" height="50" as="geometry" />
        </mxCell>
        <mxCell id="jLHxoOQeCF7ietmoerU6-85" value="Acessar lista de faltas" style="ellipse;whiteSpace=wrap;html=1;" parent="1" vertex="1">
          <mxGeometry x="170" y="600" width="80" height="50" as="geometry" />
        </mxCell>
        <mxCell id="jLHxoOQeCF7ietmoerU6-87" value="Acessar lista de notas" style="ellipse;whiteSpace=wrap;html=1;" parent="1" vertex="1">
          <mxGeometry x="80" y="600" width="80" height="50" as="geometry" />
        </mxCell>
        <mxCell id="jLHxoOQeCF7ietmoerU6-89" value="Acessar Central de soluções" style="ellipse;whiteSpace=wrap;html=1;" parent="1" vertex="1">
          <mxGeometry x="170" y="680" width="80" height="50" as="geometry" />
        </mxCell>
        <mxCell id="jLHxoOQeCF7ietmoerU6-91" value="Requerir doc necesário" style="ellipse;whiteSpace=wrap;html=1;" parent="1" vertex="1">
          <mxGeometry x="30" y="680" width="80" height="50" as="geometry" />
        </mxCell>
        <mxCell id="jLHxoOQeCF7ietmoerU6-93" value="&amp;lt;&amp;lt;include&amp;gt;&amp;gt;" style="html=1;verticalAlign=bottom;labelBackgroundColor=none;endArrow=open;endFill=0;dashed=1;rounded=0;exitX=0;exitY=0.5;exitDx=0;exitDy=0;entryX=1;entryY=0.5;entryDx=0;entryDy=0;" parent="1" source="jLHxoOQeCF7ietmoerU6-89" target="jLHxoOQeCF7ietmoerU6-91" edge="1">
          <mxGeometry width="160" relative="1" as="geometry">
            <mxPoint x="229.9999999999983" y="750" as="sourcePoint" />
            <mxPoint x="250" y="815" as="targetPoint" />
            <mxPoint as="offset" />
          </mxGeometry>
        </mxCell>
        <mxCell id="jLHxoOQeCF7ietmoerU6-95" value="Acessar Avaliação Institucional" style="ellipse;whiteSpace=wrap;html=1;" parent="1" vertex="1">
          <mxGeometry x="170" y="750" width="80" height="50" as="geometry" />
        </mxCell>
        <mxCell id="jLHxoOQeCF7ietmoerU6-96" value="Realizar avaliação" style="ellipse;whiteSpace=wrap;html=1;" parent="1" vertex="1">
          <mxGeometry x="30" y="750" width="80" height="50" as="geometry" />
        </mxCell>
        <mxCell id="jLHxoOQeCF7ietmoerU6-97" value="&amp;lt;&amp;lt;include&amp;gt;&amp;gt;" style="html=1;verticalAlign=bottom;labelBackgroundColor=none;endArrow=open;endFill=0;dashed=1;rounded=0;exitX=0;exitY=0.5;exitDx=0;exitDy=0;entryX=1;entryY=0.5;entryDx=0;entryDy=0;" parent="1" source="jLHxoOQeCF7ietmoerU6-95" target="jLHxoOQeCF7ietmoerU6-96" edge="1">
          <mxGeometry width="160" relative="1" as="geometry">
            <mxPoint x="229.9999999999983" y="820" as="sourcePoint" />
            <mxPoint x="250" y="885" as="targetPoint" />
            <mxPoint as="offset" />
          </mxGeometry>
        </mxCell>
        <mxCell id="jLHxoOQeCF7ietmoerU6-99" value="Emitir relatório necessário" style="ellipse;whiteSpace=wrap;html=1;" parent="1" vertex="1">
          <mxGeometry x="480" y="700" width="80" height="50" as="geometry" />
        </mxCell>
        <mxCell id="jLHxoOQeCF7ietmoerU6-100" value="Acessar Relatório" style="ellipse;whiteSpace=wrap;html=1;" parent="1" vertex="1">
          <mxGeometry x="340" y="700" width="80" height="50" as="geometry" />
        </mxCell>
        <mxCell id="jLHxoOQeCF7ietmoerU6-102" value="&amp;lt;&amp;lt;include&amp;gt;&amp;gt;" style="html=1;verticalAlign=bottom;labelBackgroundColor=none;endArrow=open;endFill=0;dashed=1;rounded=0;entryX=0;entryY=0.5;entryDx=0;entryDy=0;exitX=1;exitY=0.5;exitDx=0;exitDy=0;" parent="1" source="jLHxoOQeCF7ietmoerU6-100" target="jLHxoOQeCF7ietmoerU6-99" edge="1">
          <mxGeometry width="160" relative="1" as="geometry">
            <mxPoint x="390" y="820" as="sourcePoint" />
            <mxPoint x="420" y="725" as="targetPoint" />
            <mxPoint as="offset" />
          </mxGeometry>
        </mxCell>
        <mxCell id="jLHxoOQeCF7ietmoerU6-104" value="Acessar WebMail" style="ellipse;whiteSpace=wrap;html=1;" parent="1" vertex="1">
          <mxGeometry x="340" y="790" width="80" height="50" as="geometry" />
        </mxCell>
        <mxCell id="jLHxoOQeCF7ietmoerU6-105" value="Acessar Ambientes AVA" style="ellipse;whiteSpace=wrap;html=1;" parent="1" vertex="1">
          <mxGeometry x="440" y="790" width="80" height="50" as="geometry" />
        </mxCell>
        <mxCell id="jLHxoOQeCF7ietmoerU6-106" value="Acessar Biblioteca" style="ellipse;whiteSpace=wrap;html=1;" parent="1" vertex="1">
          <mxGeometry x="540" y="790" width="80" height="50" as="geometry" />
        </mxCell>
        <mxCell id="jLHxoOQeCF7ietmoerU6-107" value="Acessar Biblioteca virtual" style="ellipse;whiteSpace=wrap;html=1;" parent="1" vertex="1">
          <mxGeometry x="640" y="790" width="80" height="50" as="geometry" />
        </mxCell>
        <mxCell id="jLHxoOQeCF7ietmoerU6-108" value="Acessar Consulta de salas" style="ellipse;whiteSpace=wrap;html=1;" parent="1" vertex="1">
          <mxGeometry x="740" y="790" width="80" height="50" as="geometry" />
        </mxCell>
        <mxCell id="jLHxoOQeCF7ietmoerU6-109" value="Acessar Documentos institucionais" style="ellipse;whiteSpace=wrap;html=1;" parent="1" vertex="1">
          <mxGeometry x="334" y="910" width="80" height="50" as="geometry" />
        </mxCell>
        <mxCell id="jLHxoOQeCF7ietmoerU6-110" value="Acessar Extrato financeiro" style="ellipse;whiteSpace=wrap;html=1;" parent="1" vertex="1">
          <mxGeometry x="434" y="910" width="80" height="50" as="geometry" />
        </mxCell>
        <mxCell id="jLHxoOQeCF7ietmoerU6-111" value="Acessar Formatura" style="ellipse;whiteSpace=wrap;html=1;" parent="1" vertex="1">
          <mxGeometry x="534" y="910" width="80" height="50" as="geometry" />
        </mxCell>
        <mxCell id="jLHxoOQeCF7ietmoerU6-112" value="Acessar Minha Biblioteca Juridica" style="ellipse;whiteSpace=wrap;html=1;" parent="1" vertex="1">
          <mxGeometry x="634" y="910" width="80" height="50" as="geometry" />
        </mxCell>
        <mxCell id="jLHxoOQeCF7ietmoerU6-113" value="Acessar Ouvidoria" style="ellipse;whiteSpace=wrap;html=1;" parent="1" vertex="1">
          <mxGeometry x="734" y="910" width="80" height="50" as="geometry" />
        </mxCell>
        <mxCell id="jLHxoOQeCF7ietmoerU6-114" value="Acessar PE" style="ellipse;whiteSpace=wrap;html=1;" parent="1" vertex="1">
          <mxGeometry x="340" y="1028" width="80" height="50" as="geometry" />
        </mxCell>
        <mxCell id="jLHxoOQeCF7ietmoerU6-115" value="Acessar Portal de Peiródicos" style="ellipse;whiteSpace=wrap;html=1;" parent="1" vertex="1">
          <mxGeometry x="440" y="1028" width="80" height="50" as="geometry" />
        </mxCell>
        <mxCell id="jLHxoOQeCF7ietmoerU6-116" value="Acessar Projeto comunitário" style="ellipse;whiteSpace=wrap;html=1;" parent="1" vertex="1">
          <mxGeometry x="550" y="1028" width="80" height="50" as="geometry" />
        </mxCell>
        <mxCell id="jLHxoOQeCF7ietmoerU6-117" value="Acessar Sala virtual" style="ellipse;whiteSpace=wrap;html=1;" parent="1" vertex="1">
          <mxGeometry x="650" y="1028" width="80" height="50" as="geometry" />
        </mxCell>
      </root>
    </mxGraphModel>
  </diagram>
</mxfile>
